<svg width="16" height="16" viewBox="0 0 16 16" fill="none" xmlns="http://www.w3.org/2000/svg">
<path d="M9.40723 6.34875C9.56896 6.33354 9.71681 6.44565 9.75977 6.59583L9.7793 6.66614L9.77344 6.66907C9.77376 6.67066 9.77408 6.67229 9.77441 6.67395C9.78265 6.71475 9.79401 6.7727 9.80566 6.84387C9.82895 6.98614 9.85417 7.18387 9.86133 7.41711C9.87558 7.88305 9.81864 8.49615 9.5293 9.09875L9.52832 9.10071C9.20035 9.75576 8.56316 10.493 8.3252 10.7531C8.33305 10.8848 8.34363 10.9927 8.35254 11.0695C8.3574 11.1112 8.36113 11.1442 8.36426 11.1661C8.36582 11.1771 8.36732 11.1861 8.36816 11.1915C8.36833 11.1926 8.36803 11.1936 8.36816 11.1945C8.41336 11.384 8.27349 11.5628 8.0918 11.5861L8.0791 11.588V11.587H8.03125C7.88361 11.587 7.72615 11.4853 7.69531 11.3224C7.69192 11.3125 7.68808 11.3036 7.68652 11.297C7.68348 11.2839 7.68065 11.2675 7.67773 11.2501C7.67191 11.2153 7.66623 11.1692 7.66016 11.1144C7.64834 11.0076 7.63611 10.8637 7.62793 10.6935C7.62148 10.6778 7.61135 10.6554 7.5957 10.6241C7.58081 10.5944 7.56369 10.5586 7.54785 10.5216C7.29613 10.2766 6.91303 9.86362 6.6123 9.35852C6.30682 8.84525 6.07912 8.22515 6.17188 7.58508C6.17791 7.44826 6.26642 7.34613 6.37891 7.30676L6.43066 7.29309C6.97617 7.15866 7.38909 7.30935 7.65332 7.47766C7.99778 6.9844 8.40485 6.70292 8.74023 6.54504C8.91687 6.46192 9.07335 6.41229 9.18945 6.38391C9.28643 6.36023 9.35965 6.35215 9.39355 6.34973V6.34875C9.39613 6.3484 9.3988 6.34905 9.40137 6.34875C9.40358 6.34866 9.40555 6.34778 9.40723 6.34778V6.34875ZM9.1377 7.12317C8.97811 7.18263 8.77745 7.28552 8.57227 7.45813C8.68523 7.39547 8.82647 7.40723 8.9375 7.48645C9.09902 7.60195 9.11735 7.81015 9.00879 7.96204V7.96301C8.62933 8.48184 8.44494 9.07563 8.35547 9.61047C8.56083 9.34461 8.76592 9.04444 8.90234 8.77161C9.20804 8.1597 9.19888 7.49444 9.1377 7.12317ZM8.46973 7.54797C8.30724 7.70395 8.14658 7.90752 8.00781 8.17395C7.91348 8.37116 7.86115 8.57608 7.84082 8.7804C7.97496 8.36687 8.17193 7.94514 8.46191 7.55774C8.46435 7.55433 8.46721 7.55126 8.46973 7.54797ZM6.82227 7.93567C6.8256 8.03689 6.83661 8.13841 6.8584 8.23938C6.88028 8.17824 6.92057 8.12178 6.98145 8.07825L6.99023 8.07239C7.06059 8.03226 7.14319 8.01578 7.22266 8.02551C7.12114 7.97452 6.9884 7.93567 6.82227 7.93567Z" fill="#213F7D" stroke="#213F7D" stroke-width="0.2"/>
<path d="M4.7998 5.42035C4.98306 5.42048 5.13965 5.57692 5.13965 5.76019V11.8403C5.13947 12.0234 4.98295 12.18 4.7998 12.1801C4.61656 12.1801 4.46014 12.0235 4.45996 11.8403V5.76019C4.45996 5.57684 4.61645 5.42035 4.7998 5.42035Z" fill="#213F7D" stroke="#213F7D" stroke-width="0.2"/>
<path d="M3.2002 5.42035C3.38345 5.42048 3.54004 5.57692 3.54004 5.76019V11.8403C3.53986 12.0234 3.38334 12.18 3.2002 12.1801C3.01695 12.1801 2.86053 12.0235 2.86035 11.8403V5.76019C2.86035 5.57684 3.01684 5.42035 3.2002 5.42035Z" fill="#213F7D" stroke="#213F7D" stroke-width="0.2"/>
<path d="M11.2002 5.42035C11.3834 5.42048 11.54 5.57692 11.54 5.76019V11.8403C11.5399 12.0234 11.3833 12.18 11.2002 12.1801C11.0169 12.1801 10.8605 12.0235 10.8604 11.8403V5.76019C10.8604 5.57684 11.0168 5.42035 11.2002 5.42035Z" fill="#213F7D" stroke="#213F7D" stroke-width="0.2"/>
<path d="M12.7998 5.42035C12.9831 5.42048 13.1396 5.57692 13.1396 5.76019V11.8403C13.1395 12.0234 12.983 12.18 12.7998 12.1801C12.6166 12.1801 12.4601 12.0235 12.46 11.8403V5.76019C12.46 5.57684 12.6165 5.42035 12.7998 5.42035Z" fill="#213F7D" stroke="#213F7D" stroke-width="0.2"/>
<path d="M7.83594 1.46594C7.94298 1.40155 8.08382 1.39512 8.18652 1.4718L13.5205 4.64856C13.635 4.70074 13.7158 4.83048 13.7158 4.95911V4.9718L13.7139 4.97083C13.7003 5.08283 13.6322 5.18724 13.5352 5.24719L13.582 5.29993H2.63965C2.48423 5.29986 2.34187 5.18962 2.31738 5.04016L2.31836 5.03918C2.27879 4.88182 2.35202 4.74951 2.47266 4.66907L2.47656 4.66614L7.83594 1.46692V1.46594ZM3.86523 4.62024H12.1191L7.99902 2.14758L3.86523 4.62024Z" fill="#213F7D" stroke="#213F7D" stroke-width="0.2"/>
<path d="M13.3599 12.3004C13.5432 12.3004 13.6997 12.4568 13.6997 12.6402C13.6996 12.8235 13.5431 12.98 13.3599 12.98H2.64014C2.45686 12.98 2.30043 12.8235 2.30029 12.6402C2.30029 12.4568 2.45678 12.3004 2.64014 12.3004H13.3599Z" fill="#213F7D" stroke="#213F7D" stroke-width="0.2"/>
<path d="M14.1592 13.1003C14.3425 13.1003 14.5 13.2568 14.5 13.4402C14.4999 13.6234 14.3425 13.78 14.1592 13.78H1.83984C1.65657 13.78 1.50013 13.6234 1.5 13.4402C1.5 13.2568 1.65649 13.1003 1.83984 13.1003H14.1592Z" fill="#213F7D" stroke="#213F7D" stroke-width="0.2"/>
<path d="M14.96 13.9003C15.1432 13.9004 15.2998 14.0569 15.2998 14.2402C15.2997 14.4234 15.1432 14.5799 14.96 14.58H1.04004C0.856764 14.58 0.700329 14.4234 0.700195 14.2402C0.700195 14.0568 0.856686 13.9003 1.04004 13.9003H14.96Z" fill="#213F7D" stroke="#213F7D" stroke-width="0.2"/>
</svg>
